<svg width="32" height="32" viewBox="0 0 32 32" fill="none" xmlns="http://www.w3.org/2000/svg">
<path fill-rule="evenodd" clip-rule="evenodd" d="M7.26684 5.32622C6.07623 5.69572 4.95747 6.21918 3.91055 6.8966C2.67888 7.71771 1.71407 8.64146 1.01613 9.66785C0.338709 10.6942 0 11.7206 0 12.747C0 13.7734 0.256598 14.5329 0.769793 15.0256C1.30352 15.4978 2.14516 15.7338 3.29471 15.7338C3.29471 15.7133 3.28445 15.6928 3.26392 15.6722C3.26392 15.6312 3.24339 15.5696 3.20234 15.4875C3.07917 15.2206 2.9868 14.9435 2.92521 14.6561C2.88416 14.3687 2.86363 14.03 2.86363 13.64C2.86363 12.0388 3.23313 10.6635 3.97213 9.5139C4.71113 8.34381 5.77858 7.47138 7.17447 6.8966L2.70967 27.835H7.14368L9.60701 16.2573H14.1334L13.288 20.2309H17.7204L20.9999 4.80276H16.5659L14.5953 13.9787H10.0689L12.0396 4.80276C11.7111 4.78224 11.4545 4.77197 11.2698 4.77197C11.1055 4.75144 10.9516 4.74118 10.8079 4.74118C9.65833 4.74118 8.47798 4.9362 7.26684 5.32622Z" fill="#2C2B2B"/>
<path d="M17.243 20.1478H18.9058L17.6933 28.6464H16.0306L16.7696 23.4618L14.5988 28.6464H13.0169L13.2478 23.4387L11.3195 28.6464H10.3957L13.3286 20.7136C12.7359 20.9138 12.2817 21.2371 11.9661 21.6836C11.6505 22.1301 11.4927 22.6728 11.4927 23.3117C11.4927 23.4657 11.5004 23.6004 11.5158 23.7158C11.5389 23.8236 11.5735 23.9237 11.6197 24.0161C11.6351 24.0469 11.6428 24.0699 11.6428 24.0853C11.6505 24.093 11.6543 24.1007 11.6543 24.1084C11.2386 24.1084 10.9269 24.0238 10.719 23.8544C10.5189 23.6773 10.4188 23.4118 10.4188 23.0577C10.4188 22.6882 10.5304 22.3148 10.7537 21.9376C10.9846 21.5527 11.3002 21.2025 11.7005 20.8869C12.0623 20.602 12.4511 20.3826 12.8667 20.2287C13.2824 20.067 13.6904 19.9862 14.0907 19.9862C14.237 19.9862 14.3832 20.0016 14.5295 20.0324C14.6835 20.0555 14.8297 20.094 14.9683 20.1478L14.7027 26.2331L17.243 20.1478Z" fill="#2C2B2B"/>
<path d="M23 3.19414L25.1941 1.00002" stroke="#2C2B2B" stroke-width="0.54853" stroke-linecap="round"/>
<path d="M23.8228 4.83972L26.9241 4.93869" stroke="#2C2B2B" stroke-width="0.54853" stroke-linecap="round"/>
<path d="M23.9614 6.71512L26.7858 8.00002" stroke="#2C2B2B" stroke-width="0.54853" stroke-linecap="round"/>
</svg>
