<svg width="33" height="32" viewBox="0 0 33 32" fill="none" xmlns="http://www.w3.org/2000/svg">
<rect x="0.5" width="32" height="32" rx="16" fill="#F3F3F3"/>
<path fill-rule="evenodd" clip-rule="evenodd" d="M12.6779 9.49223C11.8109 9.76128 10.9963 10.1424 10.234 10.6357C9.33712 11.2336 8.63459 11.9062 8.12638 12.6536C7.63311 13.401 7.38647 14.1484 7.38647 14.8957C7.38647 15.6431 7.57332 16.1962 7.94701 16.5549C8.33564 16.8987 8.94849 17.0706 9.78555 17.0706C9.78555 17.0557 9.77807 17.0407 9.76313 17.0258C9.76313 16.9959 9.74818 16.951 9.71828 16.8912C9.6286 16.6969 9.56133 16.4951 9.51649 16.2859C9.4866 16.0766 9.47165 15.83 9.47165 15.546C9.47165 14.3801 9.7407 13.3786 10.2788 12.5415C10.8169 11.6895 11.5942 11.0542 12.6106 10.6357L9.35954 25.8821H12.5882L14.3819 17.4518H17.6778L17.1159 20.0928H20.3434L22.6778 9.11107H19.4491L18.0141 15.7926H14.7182L16.1532 9.11107C15.914 9.09612 15.7272 9.08865 15.5926 9.08865C15.4731 9.0737 15.361 9.06622 15.2563 9.06622C14.4193 9.06622 13.5598 9.20822 12.6779 9.49223Z" fill="#2C2B2B"/>
<path d="M19.9421 20.008H21.1528L20.27 26.1963H19.0592L19.5974 22.4211L18.0167 26.1963H16.8648L17.0329 22.4043L15.6288 26.1963H14.9562L17.0918 20.42C16.6602 20.5658 16.3295 20.8012 16.0996 21.1263C15.8698 21.4514 15.7549 21.8466 15.7549 22.3118C15.7549 22.4239 15.7605 22.522 15.7717 22.6061C15.7885 22.6846 15.8138 22.7574 15.8474 22.8247C15.8586 22.8471 15.8642 22.8639 15.8642 22.8751C15.8698 22.8807 15.8726 22.8864 15.8726 22.892C15.5699 22.892 15.3429 22.8303 15.1916 22.707C15.0458 22.5781 14.973 22.3847 14.973 22.1268C14.973 21.8578 15.0542 21.5859 15.2168 21.3113C15.385 21.031 15.6148 20.776 15.9063 20.5461C16.1697 20.3387 16.4528 20.179 16.7555 20.0669C17.0581 19.9492 17.3552 19.8903 17.6467 19.8903C17.7532 19.8903 17.8597 19.9015 17.9662 19.9239C18.0783 19.9408 18.1848 19.9688 18.2857 20.008L18.0923 24.439L19.9421 20.008Z" fill="#2C2B2B"/>
<path d="M23.969 7.89844L25.8374 6.03" stroke="#2C2B2B" stroke-width="0.467109" stroke-linecap="round"/>
<path d="M24.6697 9.29974L27.3107 9.38402" stroke="#2C2B2B" stroke-width="0.467109" stroke-linecap="round"/>
<path d="M24.7876 10.8967L27.1928 11.9909" stroke="#2C2B2B" stroke-width="0.467109" stroke-linecap="round"/>
</svg>
