<svg width="256" height="256" viewBox="0 0 256 256" fill="none" xmlns="http://www.w3.org/2000/svg">
<path fill-rule="evenodd" clip-rule="evenodd" d="M84.5126 53.9557C74.6486 57.0169 65.3798 61.3537 56.7063 66.966C46.5021 73.7687 38.5089 81.4219 32.7265 89.9253C27.1142 98.4288 24.3081 106.932 24.3081 115.436C24.3081 123.939 26.434 130.232 30.6857 134.313C35.1075 138.225 42.0803 140.181 51.6042 140.181C51.6042 140.011 51.5192 139.841 51.3491 139.671C51.3491 139.33 51.179 138.82 50.8389 138.14C49.8185 135.929 49.0532 133.633 48.543 131.252C48.2028 128.871 48.0328 126.065 48.0328 122.834C48.0328 109.568 51.094 98.1737 57.2165 88.6498C63.339 78.9559 72.1826 71.7279 83.7473 66.966L46.7572 240.437H83.4922L103.9 144.518H141.401L134.492 176.988H171.214L198.289 49.6189H161.554L145.227 125.64H107.727L124.054 49.6189C121.333 49.4489 119.207 49.3638 117.676 49.3638C116.316 49.1937 115.04 49.1087 113.85 49.1087C104.326 49.1087 94.5467 50.7244 84.5126 53.9557Z" fill="#2C2B2B"/>
<path d="M167.166 175.469H180.942L170.897 245.877H157.121L163.244 202.924L145.259 245.877H132.153L134.066 202.733L118.09 245.877H110.437L134.736 180.156C129.825 181.814 126.062 184.493 123.448 188.192C120.833 191.891 119.525 196.387 119.525 201.681C119.525 202.956 119.589 204.072 119.717 205.029C119.908 205.922 120.195 206.751 120.578 207.516C120.705 207.771 120.769 207.962 120.769 208.09C120.833 208.154 120.865 208.218 120.865 208.281C117.421 208.281 114.838 207.58 113.116 206.177C111.458 204.71 110.629 202.51 110.629 199.576C110.629 196.515 111.553 193.422 113.403 190.297C115.316 187.108 117.931 184.206 121.247 181.591C124.245 179.231 127.465 177.414 130.909 176.138C134.353 174.799 137.733 174.129 141.05 174.129C142.262 174.129 143.473 174.257 144.685 174.512C145.961 174.703 147.172 175.022 148.32 175.469L146.12 225.884L167.166 175.469Z" fill="#2C2B2B"/>
<path d="M212.979 35.8221L234.237 14.5634" stroke="#2C2B2B" stroke-width="5.31466" stroke-linecap="round"/>
<path d="M220.951 51.7661L251 52.7249" stroke="#2C2B2B" stroke-width="5.31466" stroke-linecap="round"/>
<path d="M222.292 69.9366L249.658 82.3859" stroke="#2C2B2B" stroke-width="5.31466" stroke-linecap="round"/>
</svg>
